# Blender v2.93.0 OBJ File: 'Bottle.blend'
# www.blender.org
o Bottle_lp_BottleMesh
v 0.000000 -0.958874 0.000000
v -0.100069 2.082216 0.000000
v -0.093858 2.031446 0.000000
v -0.143229 2.029414 0.000000
v -0.145134 1.962008 0.000000
v -0.295408 0.932325 0.000000
v -0.504275 0.425588 0.000000
v -0.439006 -0.969337 0.000000
v 0.000000 2.092640 0.000000
v -0.125456 1.955332 0.000000
v -0.515004 -0.237061 0.000000
v -0.479102 -0.899711 0.000000
v -0.432339 0.680481 0.000000
v -0.154276 1.400321 0.000000
v -0.092452 2.082216 0.038295
v -0.086713 2.031446 0.035918
v -0.132326 2.029414 0.054811
v -0.134086 1.962008 0.055541
v -0.272922 0.932325 0.113048
v -0.465890 0.425588 0.192978
v -0.405588 -0.969337 0.168000
v -0.115906 1.955332 0.048010
v -0.475801 -0.237061 0.197083
v -0.442633 -0.899711 0.183345
v -0.399429 0.680481 0.165449
v -0.142533 1.400321 0.059039
v -0.070760 2.082216 0.070760
v -0.066367 2.031446 0.066368
v -0.101278 2.029414 0.101278
v -0.102625 1.962008 0.102626
v -0.208885 0.932325 0.208885
v -0.356576 0.425588 0.356577
v -0.310424 -0.969337 0.310424
v -0.088710 1.955332 0.088711
v -0.364162 -0.237061 0.364163
v -0.338777 -0.899711 0.338777
v -0.305710 0.680481 0.305710
v -0.109090 1.400321 0.109090
v -0.038295 2.082216 0.092452
v -0.035918 2.031446 0.086713
v -0.054811 2.029414 0.132326
v -0.055540 1.962008 0.134087
v -0.113048 0.932325 0.272922
v -0.192978 0.425588 0.465890
v -0.168000 -0.969337 0.405588
v -0.048010 1.955332 0.115906
v -0.197083 -0.237061 0.475801
v -0.183345 -0.899711 0.442633
v -0.165449 0.680481 0.399429
v -0.059039 1.400321 0.142533
v 0.000000 2.082216 0.100069
v 0.000000 2.031446 0.093858
v 0.000000 2.029414 0.143229
v 0.000000 1.962008 0.145134
v 0.000000 0.932325 0.295408
v 0.000000 0.425588 0.504275
v 0.000000 -0.969337 0.439006
v 0.000000 1.955332 0.125456
v 0.000000 -0.237061 0.515004
v 0.000000 -0.899711 0.479102
v 0.000000 0.680481 0.432339
v 0.000000 1.400321 0.154276
v 0.038295 2.082216 0.092452
v 0.035918 2.031446 0.086713
v 0.054812 2.029414 0.132326
v 0.055541 1.962008 0.134086
v 0.113048 0.932325 0.272922
v 0.192978 0.425588 0.465890
v 0.168000 -0.969337 0.405588
v 0.048010 1.955332 0.115906
v 0.197083 -0.237061 0.475801
v 0.183345 -0.899711 0.442633
v 0.165449 0.680481 0.399429
v 0.059039 1.400321 0.142533
v 0.070760 2.082216 0.070760
v 0.066368 2.031446 0.066367
v 0.101278 2.029414 0.101278
v 0.102626 1.962008 0.102625
v 0.208885 0.932325 0.208885
v 0.356577 0.425588 0.356576
v 0.310424 -0.969337 0.310424
v 0.088711 1.955332 0.088710
v 0.364163 -0.237061 0.364162
v 0.338777 -0.899711 0.338777
v 0.305710 0.680481 0.305710
v 0.109090 1.400321 0.109090
v 0.092452 2.082216 0.038295
v 0.086713 2.031446 0.035917
v 0.132326 2.029414 0.054811
v 0.134087 1.962008 0.055540
v 0.272922 0.932325 0.113048
v 0.465890 0.425588 0.192978
v 0.405588 -0.969337 0.168000
v 0.115906 1.955332 0.048010
v 0.475801 -0.237061 0.197083
v 0.442633 -0.899711 0.183344
v 0.399429 0.680481 0.165449
v 0.142533 1.400321 0.059039
v 0.100069 2.082216 -0.000000
v 0.093858 2.031446 -0.000000
v 0.143229 2.029414 -0.000000
v 0.145134 1.962008 -0.000000
v 0.295408 0.932325 -0.000000
v 0.504275 0.425588 -0.000000
v 0.439006 -0.969337 -0.000000
v 0.125456 1.955332 -0.000000
v 0.515004 -0.237061 -0.000000
v 0.479102 -0.899711 -0.000000
v 0.432339 0.680481 -0.000000
v 0.154276 1.400321 -0.000000
v 0.092452 2.082216 -0.038295
v 0.086713 2.031446 -0.035918
v 0.132326 2.029414 -0.054811
v 0.134086 1.962008 -0.055541
v 0.272922 0.932325 -0.113048
v 0.465890 0.425588 -0.192978
v 0.405588 -0.969337 -0.168000
v 0.115906 1.955332 -0.048010
v 0.475801 -0.237061 -0.197083
v 0.442633 -0.899711 -0.183345
v 0.399429 0.680481 -0.165449
v 0.142533 1.400321 -0.059039
v 0.070760 2.082216 -0.070760
v 0.066367 2.031446 -0.066368
v 0.101278 2.029414 -0.101278
v 0.102625 1.962008 -0.102626
v 0.208885 0.932325 -0.208885
v 0.356576 0.425588 -0.356577
v 0.310424 -0.969337 -0.310424
v 0.088710 1.955332 -0.088711
v 0.364162 -0.237061 -0.364163
v 0.338777 -0.899711 -0.338777
v 0.305710 0.680481 -0.305710
v 0.109090 1.400321 -0.109090
v 0.038295 2.082216 -0.092452
v 0.035917 2.031446 -0.086713
v 0.054811 2.029414 -0.132326
v 0.055540 1.962008 -0.134087
v 0.113048 0.932325 -0.272922
v 0.192978 0.425588 -0.465890
v 0.168000 -0.969337 -0.405588
v 0.048010 1.955332 -0.115906
v 0.197083 -0.237061 -0.475801
v 0.183344 -0.899711 -0.442633
v 0.165449 0.680481 -0.399429
v 0.059039 1.400321 -0.142533
v -0.000000 2.082216 -0.100069
v -0.000000 2.031446 -0.093858
v -0.000000 2.029414 -0.143229
v -0.000000 1.962008 -0.145134
v -0.000000 0.932325 -0.295408
v -0.000000 0.425588 -0.504275
v -0.000000 -0.969337 -0.439006
v -0.000000 1.955332 -0.125456
v -0.000000 -0.237061 -0.515004
v -0.000000 -0.899711 -0.479102
v -0.000000 0.680481 -0.432339
v -0.000000 1.400321 -0.154276
v -0.038295 2.082216 -0.092452
v -0.035918 2.031446 -0.086713
v -0.054812 2.029414 -0.132326
v -0.055541 1.962008 -0.134086
v -0.113048 0.932325 -0.272922
v -0.192978 0.425588 -0.465890
v -0.168000 -0.969337 -0.405588
v -0.048010 1.955332 -0.115906
v -0.197083 -0.237061 -0.475801
v -0.183345 -0.899711 -0.442633
v -0.165449 0.680481 -0.399429
v -0.059039 1.400321 -0.142533
v -0.070760 2.082216 -0.070760
v -0.066368 2.031446 -0.066367
v -0.101278 2.029414 -0.101278
v -0.102626 1.962008 -0.102625
v -0.208885 0.932325 -0.208885
v -0.356577 0.425588 -0.356576
v -0.310424 -0.969337 -0.310424
v -0.088711 1.955332 -0.088710
v -0.364163 -0.237061 -0.364162
v -0.338777 -0.899711 -0.338776
v -0.305710 0.680481 -0.305710
v -0.109090 1.400321 -0.109090
v -0.092452 2.082216 -0.038295
v -0.086713 2.031446 -0.035918
v -0.132326 2.029414 -0.054811
v -0.134087 1.962008 -0.055540
v -0.272922 0.932325 -0.113048
v -0.465890 0.425588 -0.192978
v -0.405588 -0.969337 -0.168000
v -0.115906 1.955332 -0.048010
v -0.475801 -0.237061 -0.197083
v -0.442633 -0.899711 -0.183345
v -0.399429 0.680481 -0.165449
v -0.142533 1.400321 -0.059039
vt 0.072718 0.412437
vt 0.073939 0.396947
vt 0.053176 0.395889
vt 0.051869 0.410704
vt 0.074653 0.381525
vt 0.054022 0.381137
vt 0.074859 0.366201
vt 0.054410 0.366492
vt 0.074549 0.351011
vt 0.054327 0.352008
vt 0.073711 0.335987
vt 0.053738 0.337737
vt 0.072326 0.321176
vt 0.052580 0.323713
vt 0.070333 0.306711
vt 0.050787 0.309906
vt 0.067288 0.293408
vt 0.048670 0.295740
vt 0.041306 0.534776
vt 0.048042 0.520662
vt 0.028088 0.513541
vt 0.022636 0.527652
vt 0.053726 0.505509
vt 0.033186 0.499129
vt 0.058486 0.490088
vt 0.037726 0.484555
vt 0.062515 0.474587
vt 0.041668 0.469887
vt 0.065909 0.459056
vt 0.045023 0.455152
vt 0.068722 0.443512
vt 0.047821 0.440365
vt 0.070984 0.427966
vt 0.050093 0.425541
vt 0.584486 0.430936
vt 0.583542 0.391552
vt 0.505307 0.396561
vt 0.505877 0.431354
vt 0.580474 0.352184
vt 0.502586 0.361908
vt 0.575155 0.312707
vt 0.497645 0.327433
vt 0.567357 0.272992
vt 0.490352 0.293210
vt 0.556709 0.232907
vt 0.480506 0.259380
vt 0.542611 0.192307
vt 0.467823 0.226200
vt 0.524073 0.151056
vt 0.451924 0.194135
vt 0.499530 0.109173
vt 0.432433 0.164140
vt 0.498265 0.770151
vt 0.523551 0.721912
vt 0.442021 0.675711
vt 0.419398 0.708647
vt 0.542083 0.676754
vt 0.460187 0.641515
vt 0.556142 0.633497
vt 0.474661 0.606663
vt 0.566800 0.591569
vt 0.485968 0.571558
vt 0.574670 0.550594
vt 0.494505 0.536402
vt 0.580117 0.510298
vt 0.500556 0.501291
vt 0.583353 0.470469
vt 0.504309 0.466268
vt 0.791643 0.431534
vt 0.790945 0.384475
vt 0.642695 0.388955
vt 0.643713 0.431219
vt 0.789187 0.337118
vt 0.639794 0.346589
vt 0.786354 0.289179
vt 0.634896 0.303882
vt 0.782457 0.240321
vt 0.627817 0.260552
vt 0.777542 0.190126
vt 0.618274 0.216232
vt 0.771704 0.138056
vt 0.605838 0.170378
vt 0.765099 0.083421
vt 0.589853 0.122106
vt 0.758110 0.025959
vt 0.569486 0.069758
vt 0.771156 0.834374
vt 0.774286 0.777596
vt 0.595749 0.749790
vt 0.578652 0.806055
vt 0.777918 0.723630
vt 0.609641 0.698320
vt 0.781626 0.672038
vt 0.620705 0.650153
vt 0.785043 0.622187
vt 0.629325 0.604210
vt 0.787911 0.573578
vt 0.635787 0.559779
vt 0.790048 0.525812
vt 0.640277 0.516367
vt 0.791323 0.478559
vt 0.642904 0.473608
vt 0.954874 0.432510
vt 0.955044 0.383450
vt 0.954702 0.334117
vt 0.953889 0.284437
vt 0.952724 0.234325
vt 0.951433 0.183659
vt 0.950420 0.132220
vt 0.950496 0.079488
vt 0.953755 0.024093
vt 0.956637 0.824767
vt 0.951203 0.774335
vt 0.949419 0.725141
vt 0.949526 0.676203
vt 0.950518 0.627429
vt 0.951844 0.578750
vt 0.953154 0.530088
vt 0.954215 0.481365
vt 0.328454 0.427352
vt 0.329029 0.404071
vt 0.118109 0.399190
vt 0.117065 0.416173
vt 0.328500 0.380933
vt 0.118581 0.382268
vt 0.326866 0.358069
vt 0.118473 0.365420
vt 0.324129 0.335613
vt 0.117781 0.348658
vt 0.320295 0.313708
vt 0.116501 0.331985
vt 0.315384 0.292507
vt 0.114662 0.315397
vt 0.309433 0.272175
vt 0.112444 0.298885
vt 0.302451 0.252795
vt 0.110967 0.282111
vt 0.285122 0.602833
vt 0.294242 0.582962
vt 0.095169 0.536861
vt 0.091869 0.554847
vt 0.302238 0.562575
vt 0.099420 0.519109
vt 0.309245 0.541286
vt 0.103572 0.501729
vt 0.315225 0.519292
vt 0.107320 0.484508
vt 0.320152 0.496756
vt 0.110570 0.467365
vt 0.324008 0.473827
vt 0.113287 0.450267
vt 0.326778 0.450647
vt 0.115456 0.433202
vt 0.203579 0.806187
vt 0.239403 0.626085
vt 0.167755 0.626085
vt 0.305598 0.653504
vt 0.356262 0.704167
vt 0.383680 0.770362
vt 0.383680 0.842011
vt 0.356261 0.908206
vt 0.305598 0.958869
vt 0.239403 0.986288
vt 0.167754 0.986288
vt 0.101559 0.958869
vt 0.050896 0.908206
vt 0.023477 0.842011
vt 0.023477 0.770362
vt 0.050896 0.704167
vt 0.101560 0.653504
vt 0.977094 0.432666
vt 0.977375 0.383386
vt 0.977167 0.333837
vt 0.976514 0.283981
vt 0.975540 0.233775
vt 0.974486 0.183171
vt 0.973800 0.132102
vt 0.974393 0.080455
vt 0.978459 0.028142
vt 0.978459 0.820025
vt 0.972919 0.772748
vt 0.971350 0.724795
vt 0.971518 0.676433
vt 0.972529 0.627918
vt 0.973876 0.579307
vt 0.975226 0.530585
vt 0.976349 0.481719
vt 0.090975 0.413188
vt 0.092091 0.397094
vt 0.092665 0.381069
vt 0.092691 0.365135
vt 0.092150 0.349311
vt 0.091004 0.333605
vt 0.089157 0.317982
vt 0.086332 0.302264
vt 0.081807 0.285658
vt 0.058365 0.547737
vt 0.066676 0.528048
vt 0.072359 0.510825
vt 0.077041 0.494279
vt 0.081005 0.477955
vt 0.084349 0.461712
vt 0.087112 0.445507
vt 0.089317 0.429331
vt 0.110412 0.415471
vt 0.111475 0.398714
vt 0.111972 0.382019
vt 0.111896 0.365402
vt 0.111240 0.348875
vt 0.109997 0.332439
vt 0.108186 0.316062
vt 0.105989 0.299554
vt 0.104240 0.281464
vt 0.083853 0.554977
vt 0.087817 0.535157
vt 0.092494 0.517227
vt 0.096795 0.499965
vt 0.100603 0.482933
vt 0.103879 0.466001
vt 0.106610 0.449121
vt 0.108789 0.432277
vt 0.259165 0.193120
vt 0.275957 0.152581
vt 0.165660 0.130642
vt 0.275957 0.108702
vt 0.259165 0.068163
vt 0.228138 0.037137
vt 0.187600 0.020345
vt 0.143721 0.020345
vt 0.103182 0.037137
vt 0.072155 0.068164
vt 0.055364 0.108702
vt 0.055364 0.152581
vt 0.072155 0.193120
vt 0.103182 0.224146
vt 0.143721 0.240938
vt 0.187600 0.240938
vt 0.228138 0.224146
vn -0.7180 0.6960 0.0000
vn -0.6634 0.6960 0.2748
vn -0.7506 0.5831 0.3109
vn -0.8124 0.5831 0.0000
vn -0.5077 0.6960 0.5077
vn -0.5744 0.5831 0.5744
vn -0.2748 0.6960 0.6634
vn -0.3109 0.5831 0.7506
vn 0.0000 0.6960 0.7180
vn 0.0000 0.5831 0.8124
vn 0.2748 0.6960 0.6634
vn 0.3109 0.5831 0.7506
vn 0.5077 0.6960 0.5077
vn 0.5744 0.5831 0.5744
vn 0.6634 0.6960 0.2748
vn 0.7506 0.5831 0.3109
vn 0.7180 0.6960 0.0000
vn 0.8124 0.5831 0.0000
vn 0.6634 0.6960 -0.2748
vn 0.7506 0.5831 -0.3109
vn 0.5077 0.6960 -0.5077
vn 0.5744 0.5831 -0.5744
vn 0.2748 0.6960 -0.6634
vn 0.3109 0.5831 -0.7506
vn 0.0000 0.6960 -0.7180
vn 0.0000 0.5831 -0.8124
vn -0.2748 0.6960 -0.6634
vn -0.3109 0.5831 -0.7506
vn -0.5077 0.6960 -0.5077
vn -0.5744 0.5831 -0.5744
vn -0.6634 0.6960 -0.2748
vn -0.7506 0.5831 -0.3109
vn -0.9281 0.3722 0.0000
vn -0.8575 0.3722 0.3552
vn -0.8508 0.3898 0.3524
vn -0.9209 0.3898 0.0000
vn -0.6563 0.3722 0.6563
vn -0.6511 0.3898 0.6511
vn -0.3552 0.3722 0.8575
vn -0.3524 0.3898 0.8508
vn 0.0000 0.3722 0.9281
vn 0.0000 0.3898 0.9209
vn 0.3552 0.3722 0.8575
vn 0.3524 0.3898 0.8508
vn 0.6563 0.3722 0.6563
vn 0.6511 0.3898 0.6511
vn 0.8575 0.3722 0.3552
vn 0.8508 0.3898 0.3524
vn 0.9281 0.3722 0.0000
vn 0.9209 0.3898 0.0000
vn 0.8575 0.3722 -0.3552
vn 0.8508 0.3898 -0.3524
vn 0.6563 0.3722 -0.6563
vn 0.6511 0.3898 -0.6511
vn 0.3552 0.3722 -0.8575
vn 0.3524 0.3898 -0.8508
vn 0.0000 0.3722 -0.9281
vn 0.0000 0.3898 -0.9209
vn -0.3552 0.3722 -0.8575
vn -0.3524 0.3898 -0.8508
vn -0.6563 0.3722 -0.6563
vn -0.6511 0.3898 -0.6511
vn -0.8575 0.3722 -0.3552
vn -0.8508 0.3898 -0.3524
vn -0.9998 -0.0189 0.0000
vn -0.9237 -0.0189 0.3826
vn -0.9144 0.1429 0.3787
vn -0.9897 0.1429 0.0000
vn -0.7070 -0.0189 0.7070
vn -0.6999 0.1429 0.6999
vn -0.3826 -0.0189 0.9237
vn -0.3787 0.1429 0.9144
vn 0.0000 -0.0189 0.9998
vn 0.0000 0.1429 0.9897
vn 0.3826 -0.0189 0.9237
vn 0.3787 0.1429 0.9144
vn 0.7070 -0.0189 0.7070
vn 0.6999 0.1429 0.6999
vn 0.9237 -0.0189 0.3826
vn 0.9144 0.1429 0.3787
vn 0.9998 -0.0189 0.0000
vn 0.9897 0.1429 0.0000
vn 0.9237 -0.0189 -0.3826
vn 0.9144 0.1429 -0.3787
vn 0.7070 -0.0189 -0.7070
vn 0.6999 0.1429 -0.6999
vn 0.3826 -0.0189 -0.9237
vn 0.3787 0.1429 -0.9144
vn 0.0000 -0.0189 -0.9998
vn 0.0000 0.1429 -0.9897
vn -0.3826 -0.0189 -0.9237
vn -0.3787 0.1429 -0.9144
vn -0.7070 -0.0189 -0.7070
vn -0.6999 0.1429 -0.6999
vn -0.9237 -0.0189 -0.3826
vn -0.9144 0.1429 -0.3787
vn -0.9609 -0.2767 0.0000
vn -0.8878 -0.2767 0.3677
vn -0.6795 -0.2767 0.6795
vn -0.3677 -0.2767 0.8878
vn 0.0000 -0.2767 0.9609
vn 0.3677 -0.2767 0.8878
vn 0.6795 -0.2767 0.6795
vn 0.8878 -0.2767 0.3677
vn 0.9609 -0.2767 0.0000
vn 0.8878 -0.2767 -0.3677
vn 0.6795 -0.2767 -0.6795
vn 0.3677 -0.2767 -0.8878
vn 0.0000 -0.2767 -0.9609
vn -0.3677 -0.2767 -0.8878
vn -0.6795 -0.2767 -0.6795
vn -0.8878 -0.2767 -0.3677
vn -0.9847 0.1741 0.0000
vn -0.9098 0.1741 0.3768
vn -0.7398 -0.5990 0.3064
vn -0.8007 -0.5990 0.0000
vn -0.6963 0.1741 0.6963
vn -0.5662 -0.5990 0.5662
vn -0.3768 0.1741 0.9098
vn -0.3064 -0.5990 0.7398
vn 0.0000 0.1741 0.9847
vn 0.0000 -0.5990 0.8007
vn 0.3768 0.1741 0.9098
vn 0.3064 -0.5990 0.7398
vn 0.6963 0.1741 0.6963
vn 0.5662 -0.5990 0.5662
vn 0.9098 0.1741 0.3768
vn 0.7398 -0.5990 0.3064
vn 0.9847 0.1741 0.0000
vn 0.8007 -0.5990 0.0000
vn 0.9098 0.1741 -0.3768
vn 0.7398 -0.5990 -0.3064
vn 0.6963 0.1741 -0.6963
vn 0.5662 -0.5990 -0.5662
vn 0.3768 0.1741 -0.9098
vn 0.3064 -0.5990 -0.7398
vn 0.0000 0.1741 -0.9847
vn 0.0000 -0.5990 -0.8007
vn -0.3768 0.1741 -0.9098
vn -0.3064 -0.5990 -0.7398
vn -0.6963 0.1741 -0.6963
vn -0.5662 -0.5990 -0.5662
vn -0.9098 0.1741 -0.3768
vn -0.7398 -0.5990 -0.3064
vn 0.0000 -1.0000 0.0000
vn -0.4948 -0.8444 0.2050
vn -0.5356 -0.8444 0.0000
vn -0.3787 -0.8444 0.3787
vn -0.2050 -0.8444 0.4948
vn 0.0000 -0.8444 0.5356
vn 0.2050 -0.8444 0.4948
vn 0.3787 -0.8444 0.3787
vn 0.4948 -0.8444 0.2050
vn 0.5356 -0.8444 0.0000
vn 0.4948 -0.8444 -0.2050
vn 0.3787 -0.8444 -0.3787
vn 0.2050 -0.8444 -0.4948
vn 0.0000 -0.8444 -0.5356
vn -0.2050 -0.8444 -0.4948
vn -0.3787 -0.8444 -0.3787
vn -0.4948 -0.8444 -0.2050
vn -0.7490 0.6626 0.0000
vn -0.6920 0.6626 0.2866
vn -0.5296 0.6626 0.5296
vn -0.2866 0.6626 0.6920
vn 0.0000 0.6626 0.7490
vn 0.2866 0.6626 0.6920
vn 0.5296 0.6626 0.5296
vn 0.6920 0.6626 0.2866
vn 0.7490 0.6626 0.0000
vn 0.6920 0.6626 -0.2866
vn 0.5296 0.6626 -0.5296
vn 0.2866 0.6626 -0.6920
vn 0.0000 0.6626 -0.7490
vn -0.2866 0.6626 -0.6920
vn -0.5296 0.6626 -0.5296
vn -0.6920 0.6626 -0.2866
vn -0.8424 -0.5388 0.0000
vn -0.7783 -0.5388 0.3224
vn -0.5957 -0.5388 0.5957
vn -0.3224 -0.5388 0.7783
vn 0.0000 -0.5388 0.8424
vn 0.3224 -0.5388 0.7783
vn 0.5957 -0.5388 0.5957
vn 0.7783 -0.5388 0.3224
vn 0.8424 -0.5388 0.0000
vn 0.7783 -0.5388 -0.3224
vn 0.5957 -0.5388 -0.5957
vn 0.3224 -0.5388 -0.7783
vn 0.0000 -0.5388 -0.8424
vn -0.3224 -0.5388 -0.7783
vn -0.5957 -0.5388 -0.5957
vn -0.7783 -0.5388 -0.3224
vn 0.0000 1.0000 0.0000
s 1
f 3/1/1 16/2/2 15/3/3 2/4/4
f 16/2/2 28/5/5 27/6/6 15/3/3
f 28/5/5 40/7/7 39/8/8 27/6/6
f 40/7/7 52/9/9 51/10/10 39/8/8
f 52/9/9 64/11/11 63/12/12 51/10/10
f 64/11/11 76/13/13 75/14/14 63/12/12
f 76/13/13 88/15/15 87/16/16 75/14/14
f 88/15/15 100/17/17 99/18/18 87/16/16
f 100/19/17 112/20/19 111/21/20 99/22/18
f 112/20/19 124/23/21 123/24/22 111/21/20
f 124/23/21 136/25/23 135/26/24 123/24/22
f 136/25/23 148/27/25 147/28/26 135/26/24
f 148/27/25 160/29/27 159/30/28 147/28/26
f 160/29/27 172/31/29 171/32/30 159/30/28
f 172/31/29 184/33/31 183/34/32 171/32/30
f 184/33/31 3/1/1 2/4/4 183/34/32
f 13/35/33 25/36/34 19/37/35 6/38/36
f 25/36/34 37/39/37 31/40/38 19/37/35
f 37/39/37 49/41/39 43/42/40 31/40/38
f 49/41/39 61/43/41 55/44/42 43/42/40
f 61/43/41 73/45/43 67/46/44 55/44/42
f 73/45/43 85/47/45 79/48/46 67/46/44
f 85/47/45 97/49/47 91/50/48 79/48/46
f 97/49/47 109/51/49 103/52/50 91/50/48
f 109/53/49 121/54/51 115/55/52 103/56/50
f 121/54/51 133/57/53 127/58/54 115/55/52
f 133/57/53 145/59/55 139/60/56 127/58/54
f 145/59/55 157/61/57 151/62/58 139/60/56
f 157/61/57 169/63/59 163/64/60 151/62/58
f 169/63/59 181/65/61 175/66/62 163/64/60
f 181/65/61 193/67/63 187/68/64 175/66/62
f 193/67/63 13/35/33 6/38/36 187/68/64
f 11/69/65 23/70/66 20/71/67 7/72/68
f 23/70/66 35/73/69 32/74/70 20/71/67
f 35/73/69 47/75/71 44/76/72 32/74/70
f 47/75/71 59/77/73 56/78/74 44/76/72
f 59/77/73 71/79/75 68/80/76 56/78/74
f 71/79/75 83/81/77 80/82/78 68/80/76
f 83/81/77 95/83/79 92/84/80 80/82/78
f 95/83/79 107/85/81 104/86/82 92/84/80
f 107/87/81 119/88/83 116/89/84 104/90/82
f 119/88/83 131/91/85 128/92/86 116/89/84
f 131/91/85 143/93/87 140/94/88 128/92/86
f 143/93/87 155/95/89 152/96/90 140/94/88
f 155/95/89 167/97/91 164/98/92 152/96/90
f 167/97/91 179/99/93 176/100/94 164/98/92
f 179/99/93 191/101/95 188/102/96 176/100/94
f 191/101/95 11/69/65 7/72/68 188/102/96
f 12/103/97 24/104/98 23/70/66 11/69/65
f 24/104/98 36/105/99 35/73/69 23/70/66
f 36/105/99 48/106/100 47/75/71 35/73/69
f 48/106/100 60/107/101 59/77/73 47/75/71
f 60/107/101 72/108/102 71/79/75 59/77/73
f 72/108/102 84/109/103 83/81/77 71/79/75
f 84/109/103 96/110/104 95/83/79 83/81/77
f 96/110/104 108/111/105 107/85/81 95/83/79
f 108/112/105 120/113/106 119/88/83 107/87/81
f 120/113/106 132/114/107 131/91/85 119/88/83
f 132/114/107 144/115/108 143/93/87 131/91/85
f 144/115/108 156/116/109 155/95/89 143/93/87
f 156/116/109 168/117/110 167/97/91 155/95/89
f 168/117/110 180/118/111 179/99/93 167/97/91
f 180/118/111 192/119/112 191/101/95 179/99/93
f 192/119/112 12/103/97 11/69/65 191/101/95
f 14/120/113 26/121/114 22/122/115 10/123/116
f 26/121/114 38/124/117 34/125/118 22/122/115
f 38/124/117 50/126/119 46/127/120 34/125/118
f 50/126/119 62/128/121 58/129/122 46/127/120
f 62/128/121 74/130/123 70/131/124 58/129/122
f 74/130/123 86/132/125 82/133/126 70/131/124
f 86/132/125 98/134/127 94/135/128 82/133/126
f 98/134/127 110/136/129 106/137/130 94/135/128
f 110/138/129 122/139/131 118/140/132 106/141/130
f 122/139/131 134/142/133 130/143/134 118/140/132
f 134/142/133 146/144/135 142/145/136 130/143/134
f 146/144/135 158/146/137 154/147/138 142/145/136
f 158/146/137 170/148/139 166/149/140 154/147/138
f 170/148/139 182/150/141 178/151/142 166/149/140
f 182/150/141 194/152/143 190/153/144 178/151/142
f 194/152/143 14/120/113 10/123/116 190/153/144
f 1/154/145 21/155/146 8/156/147
f 1/154/145 33/157/148 21/155/146
f 1/154/145 45/158/149 33/157/148
f 1/154/145 57/159/150 45/158/149
f 1/154/145 69/160/151 57/159/150
f 1/154/145 81/161/152 69/160/151
f 1/154/145 93/162/153 81/161/152
f 1/154/145 105/163/154 93/162/153
f 1/154/145 117/164/155 105/163/154
f 1/154/145 129/165/156 117/164/155
f 1/154/145 141/166/157 129/165/156
f 1/154/145 153/167/158 141/166/157
f 1/154/145 165/168/159 153/167/158
f 1/154/145 177/169/160 165/168/159
f 1/154/145 189/170/161 177/169/160
f 1/154/145 8/156/147 189/170/161
f 8/171/147 21/172/146 24/104/98 12/103/97
f 21/172/146 33/173/148 36/105/99 24/104/98
f 33/173/148 45/174/149 48/106/100 36/105/99
f 45/174/149 57/175/150 60/107/101 48/106/100
f 57/175/150 69/176/151 72/108/102 60/107/101
f 69/176/151 81/177/152 84/109/103 72/108/102
f 81/177/152 93/178/153 96/110/104 84/109/103
f 93/178/153 105/179/154 108/111/105 96/110/104
f 105/180/154 117/181/155 120/113/106 108/112/105
f 117/181/155 129/182/156 132/114/107 120/113/106
f 129/182/156 141/183/157 144/115/108 132/114/107
f 141/183/157 153/184/158 156/116/109 144/115/108
f 153/184/158 165/185/159 168/117/110 156/116/109
f 165/185/159 177/186/160 180/118/111 168/117/110
f 177/186/160 189/187/161 192/119/112 180/118/111
f 189/187/161 8/171/147 12/103/97 192/119/112
f 7/72/68 20/71/67 25/36/34 13/35/33
f 20/71/67 32/74/70 37/39/37 25/36/34
f 32/74/70 44/76/72 49/41/39 37/39/37
f 44/76/72 56/78/74 61/43/41 49/41/39
f 56/78/74 68/80/76 73/45/43 61/43/41
f 68/80/76 80/82/78 85/47/45 73/45/43
f 80/82/78 92/84/80 97/49/47 85/47/45
f 92/84/80 104/86/82 109/51/49 97/49/47
f 104/90/82 116/89/84 121/54/51 109/53/49
f 116/89/84 128/92/86 133/57/53 121/54/51
f 128/92/86 140/94/88 145/59/55 133/57/53
f 140/94/88 152/96/90 157/61/57 145/59/55
f 152/96/90 164/98/92 169/63/59 157/61/57
f 164/98/92 176/100/94 181/65/61 169/63/59
f 176/100/94 188/102/96 193/67/63 181/65/61
f 188/102/96 7/72/68 13/35/33 193/67/63
f 6/38/36 19/37/35 26/121/114 14/120/113
f 19/37/35 31/40/38 38/124/117 26/121/114
f 31/40/38 43/42/40 50/126/119 38/124/117
f 43/42/40 55/44/42 62/128/121 50/126/119
f 55/44/42 67/46/44 74/130/123 62/128/121
f 67/46/44 79/48/46 86/132/125 74/130/123
f 79/48/46 91/50/48 98/134/127 86/132/125
f 91/50/48 103/52/50 110/136/129 98/134/127
f 103/56/50 115/55/52 122/139/131 110/138/129
f 115/55/52 127/58/54 134/142/133 122/139/131
f 127/58/54 139/60/56 146/144/135 134/142/133
f 139/60/56 151/62/58 158/146/137 146/144/135
f 151/62/58 163/64/60 170/148/139 158/146/137
f 163/64/60 175/66/62 182/150/141 170/148/139
f 175/66/62 187/68/64 194/152/143 182/150/141
f 187/68/64 6/38/36 14/120/113 194/152/143
f 4/188/162 17/189/163 16/2/2 3/1/1
f 17/189/163 29/190/164 28/5/5 16/2/2
f 29/190/164 41/191/165 40/7/7 28/5/5
f 41/191/165 53/192/166 52/9/9 40/7/7
f 53/192/166 65/193/167 64/11/11 52/9/9
f 65/193/167 77/194/168 76/13/13 64/11/11
f 77/194/168 89/195/169 88/15/15 76/13/13
f 89/195/169 101/196/170 100/17/17 88/15/15
f 101/197/170 113/198/171 112/20/19 100/19/17
f 113/198/171 125/199/172 124/23/21 112/20/19
f 125/199/172 137/200/173 136/25/23 124/23/21
f 137/200/173 149/201/174 148/27/25 136/25/23
f 149/201/174 161/202/175 160/29/27 148/27/25
f 161/202/175 173/203/176 172/31/29 160/29/27
f 173/203/176 185/204/177 184/33/31 172/31/29
f 185/204/177 4/188/162 3/1/1 184/33/31
f 5/205/178 18/206/179 17/189/163 4/188/162
f 18/206/179 30/207/180 29/190/164 17/189/163
f 30/207/180 42/208/181 41/191/165 29/190/164
f 42/208/181 54/209/182 53/192/166 41/191/165
f 54/209/182 66/210/183 65/193/167 53/192/166
f 66/210/183 78/211/184 77/194/168 65/193/167
f 78/211/184 90/212/185 89/195/169 77/194/168
f 90/212/185 102/213/186 101/196/170 89/195/169
f 102/214/186 114/215/187 113/198/171 101/197/170
f 114/215/187 126/216/188 125/199/172 113/198/171
f 126/216/188 138/217/189 137/200/173 125/199/172
f 138/217/189 150/218/190 149/201/174 137/200/173
f 150/218/190 162/219/191 161/202/175 149/201/174
f 162/219/191 174/220/192 173/203/176 161/202/175
f 174/220/192 186/221/193 185/204/177 173/203/176
f 186/221/193 5/205/178 4/188/162 185/204/177
f 10/123/116 22/122/115 18/206/179 5/205/178
f 22/122/115 34/125/118 30/207/180 18/206/179
f 34/125/118 46/127/120 42/208/181 30/207/180
f 46/127/120 58/129/122 54/209/182 42/208/181
f 58/129/122 70/131/124 66/210/183 54/209/182
f 70/131/124 82/133/126 78/211/184 66/210/183
f 82/133/126 94/135/128 90/212/185 78/211/184
f 94/135/128 106/137/130 102/213/186 90/212/185
f 106/141/130 118/140/132 114/215/187 102/214/186
f 118/140/132 130/143/134 126/216/188 114/215/187
f 130/143/134 142/145/136 138/217/189 126/216/188
f 142/145/136 154/147/138 150/218/190 138/217/189
f 154/147/138 166/149/140 162/219/191 150/218/190
f 166/149/140 178/151/142 174/220/192 162/219/191
f 178/151/142 190/153/144 186/221/193 174/220/192
f 190/153/144 10/123/116 5/205/178 186/221/193
f 2/222/4 15/223/3 9/224/194
f 15/223/3 27/225/6 9/224/194
f 27/225/6 39/226/8 9/224/194
f 39/226/8 51/227/10 9/224/194
f 51/227/10 63/228/12 9/224/194
f 63/228/12 75/229/14 9/224/194
f 75/229/14 87/230/16 9/224/194
f 87/230/16 99/231/18 9/224/194
f 99/231/18 111/232/20 9/224/194
f 111/232/20 123/233/22 9/224/194
f 123/233/22 135/234/24 9/224/194
f 135/234/24 147/235/26 9/224/194
f 147/235/26 159/236/28 9/224/194
f 159/236/28 171/237/30 9/224/194
f 171/237/30 183/238/32 9/224/194
f 183/238/32 2/222/4 9/224/194
